<svg xmlns="http://www.w3.org/2000/svg" data-name="Layer 1" viewBox="0 0 100 125" x="0px" y="0px"><defs><style>.cls-1{fill-rule:evenodd;}</style></defs><title>Doodle Lightning</title><path class="cls-1" d="M91.49,58.12c-1-.92-2.38-.18-3.54.1-1.34.34-2.8-.21-4.13.42-1.59-.4-3.87.8-5.53.93,1.15-4.31,1.68-8.88,3-13.11.32.27.39-.47.23-.19-.1,0-.08.18-.17.06.15-1.09,0-2.35.74-3.14-.58-.26,0-1.19-.37-1.56-.72,0-.75.85-1,1.27-.67.45-.72,1.17-1.41,1.61-.2-.07-.27-.44-.59-.28a13,13,0,0,1-2.25,3.9.79.79,0,0,0-.56.11,2.56,2.56,0,0,0-.67,1.43c-.14.25-.11,0-.29,0-.84,2.3-3,4-4,6.22a4.15,4.15,0,0,0-.9,1.33,8.33,8.33,0,0,0-1.36,2c-1.56,2-2.89,4-4.58,6A4,4,0,0,1,62.78,68c.83.79,2.41.12,3.57-.31a27.51,27.51,0,0,1,4.93-1.49,18.82,18.82,0,0,0-1.39,3,114.61,114.61,0,0,0-7.35,13.63c.25.48-.36.88,0,1.19.54.07.69-.58,1.21-.75-.09.41-.38.77.1,1.07a15,15,0,0,0,2-2.22A125.28,125.28,0,0,0,80,69.09c.2-.11.28-.26.58-.31,1.29-1.53,3.11-2.64,4.58-4.06.76-.74,1.54-1.61,2.33-2.34s1.47-1.57,2.24-2.32C90.34,59.46,91.32,59.08,91.49,58.12ZM66.17,67c-.52.16-1.07.09-1.48.19.41-.1,1,0,1.49-.19Zm-1.71.27.08,0Zm1.05.05h0Zm-.34-.75c.59-.2,1.24.07,1.7-.42h0C66.41,66.63,65.76,66.36,65.17,66.55Zm.79-.47a1.17,1.17,0,0,0,.67.13A1.15,1.15,0,0,1,66,66.08ZM68,66c.24-.07.47-.12.71-.17-.24.05-.48.11-.72.18Zm1.18-.55a19.71,19.71,0,0,1,2-.54A20.46,20.46,0,0,0,69.21,65.46Zm1.69-.25a2.51,2.51,0,0,0,.48-.34h0A2.55,2.55,0,0,1,70.9,65.21ZM72,66.76a.38.38,0,0,0,.08.34l-.27.45.27-.44A.38.38,0,0,1,72,66.76Zm-1.1,1.66,0,0h0l0,0a.54.54,0,0,0,0-.06v0a.15.15,0,0,1,0,.05l0,0Zm0-.12v0a.44.44,0,0,1,0,.06Zm0-.14,0,0,0-.06S71,68.15,71,68.15Zm-2,4.29-.12.22s0,0-.06,0,0,0,.05,0Zm-.12-.13a.48.48,0,0,0,.1-.19h0A.5.5,0,0,1,68.86,72.32Zm.18-.12h0Zm-3.4,6.62a.81.81,0,0,1,0,.12.85.85,0,0,0,0-.12Zm-1,2.36a.33.33,0,0,0,0,.05.32.32,0,0,1,0,0,.47.47,0,0,0-.12.09A.49.49,0,0,1,64.62,81.17Zm-.37.63a.38.38,0,0,0,.21-.1.38.38,0,0,1-.21.1Zm1.44-2.72a.35.35,0,0,1,0,.1h0A.29.29,0,0,0,65.69,79.08ZM65.9,79a.35.35,0,0,0,.09-.33h0A.35.35,0,0,1,65.9,79Zm4.17-8.87a.86.86,0,0,0,0,.39h0A.85.85,0,0,1,70.07,70.14Zm1.23-2.3c.06-.1.14-.19.19-.29C71.43,67.66,71.36,67.75,71.3,67.85Zm.36-.63c.09-.18.19-.36.27-.55h0C71.85,66.85,71.75,67,71.66,67.22ZM66.53,80.77c-.59.52-1.48.91-1.65,1.63C65,81.69,65.93,81.3,66.53,80.77Zm-1.69,1.82h0c.55-.72,1.74-1.21,1.86-2h0C66.59,81.38,65.38,81.87,64.84,82.59Zm8.62-7.92c-.19.12-.35.24-.52.36.17-.13.34-.26.53-.37ZM71,76.85a8.24,8.24,0,0,0,1.25-1,8.35,8.35,0,0,1-1.26,1ZM84.56,63.94a121.16,121.16,0,0,0-11.26,10c-3,2-4.71,4.66-7.57,6.75a5.92,5.92,0,0,1,1-1.94c1.05-2,2-4.29,3-6.39.54-1.06,1.18-2.13,1.8-3.23.77-1.37,1.95-2.74,2.38-4.36-2.12-1.56-5.66,1-8.1.67a68.77,68.77,0,0,1,3.94-5.81,78.81,78.81,0,0,1,6.64-9.3c1-1.82,2.81-3.25,3.7-5.12.29.05-.19,1.25-.36,2-.48,2.1-1,3.88-1.52,5.92,0,.2.06.43,0,.59-.1.38-.49,1-.56,1.2a23.4,23.4,0,0,1-.94,3.43c-.4.91-.92,1.65-1.29,2.46.29.45,1.06,0,1.65-.11s1.12-.06,1.53-.16a20.3,20.3,0,0,1,2-.62c1.41-.18,2.8.22,4-.09,1.9-.7,3.34-.4,5.14-.88A29.83,29.83,0,0,1,84.56,63.94Z"/><path class="cls-1" d="M19.21,65.4l0,.09s.12,0,.12-.07S19.3,65.34,19.21,65.4Z"/><path class="cls-1" d="M37.45,83.56c-.14-.25-.58-.21-.54-.62a27.13,27.13,0,0,1-3.07-3.1c.3.14.48.47.81.54.06-.27-.35-.38-.48-.6.1,0,.08-.07.14-.11a1.25,1.25,0,0,0-.5-.56c0,.13.2.22.14.36-.08-.15-.32-.27-.5-.44s-.88-.92-.73-1c-.2,0-.18,0-.28-.13s.08,0,.09-.06a22.3,22.3,0,0,1-4.11-4.4c-.09-.08-.07.12-.13,0s-.13-.1,0-.13.07,0,.07,0a.09.09,0,0,1-.07,0c0-.07-.06-.15,0-.16a9.37,9.37,0,0,0,1.82.19c0,.08.12,0,.13.1.72-.07,1.29.18,2,.15.11-.22.38-.28.67-.29,0-.06,0-.16,0-.18a3.33,3.33,0,0,0,1.07-.1c-.05-.24-.32-.08-.28-.37-.14,0-.31,0-.4-.09-.15-.47-.81-.68-1-1,.09,0,.07-.07.15-.08a30.92,30.92,0,0,1-2.58-2.5.2.2,0,0,0,.18-.09c-.83-.93-2-1.87-2.83-2.86.12,0,.11.09.24,0,0-.22-.18-.21-.29-.3-.29-.4-.72-.55-1-1,0,0-.13,0-.15,0,0-.24-.44-.35-.57-.68-.06,0-.16,0-.22,0a.21.21,0,0,0-.05-.19.52.52,0,0,1-.23-.07c0-.05.11,0,0-.15-.32-.1-.28-.37-.52-.45.06,0,.1.06.19,0s-.24-.36-.32-.35c-.1-.16-.09-.18-.28-.26,0,0,.06,0,.05,0-.2-.1-.34-.35-.54-.45-.12-.29-.41-.24-.51-.58-.08,0-.11,0-.15-.06-.49-.57-1-1.07-1.51-1.63,0-.14-.09-.15-.11-.28-.09,0-.1-.06-.16-.09-.37-.77-.91-1.25-1.22-1.92a15.51,15.51,0,0,0,2.17.26l.16,0c-.07.07.07.19.09.08s.17-.08.22,0c1.73.06,3.59.34,5.43.36a2.15,2.15,0,0,0,.8.1,1.29,1.29,0,0,1,.27-.27,1.09,1.09,0,0,1-.07-.5,25.67,25.67,0,0,0-1.32-2.65,4.94,4.94,0,0,1-.63-1.59c0,.13.11.19.22.18a4.14,4.14,0,0,0-.79-1.56c.12.17,0,.27,0,.38a7.92,7.92,0,0,1-.59-1.12c.11,0,.19-.05.2.08s0,0-.08,0c.14.18.19.32.4.57a2.2,2.2,0,0,0-.09-.32c-.09-.18-.44-.63-.44-.72s0,0-.06-.09a.15.15,0,0,0,0-.15c-.58-.78-.69-1.63-1.23-2.26-.13-.51-.37-1-.57-1.64-.06-.09-.08,0-.14-.06a1.5,1.5,0,0,0,0-.18,5.7,5.7,0,0,1-.26-.6c-.05-.12-.08-.46-.19-.43a2.17,2.17,0,0,1,.17.72,6.9,6.9,0,0,1-.82-1.66c.06,0,.06-.09.1-.13s.18.1.24.35c.06-.21-.12-.53-.36-.89.15-.06-.12-.05,0-.15-.1-.11-.24.07-.3-.07.1,0,.06,0,.19-.05-.08-.27-.11-.43-.34-.49l.13,0c-.11-.28-.25-.34-.23-.55-.2-.08-.16-.38-.26-.56s-.16-.13-.2-.22A32.47,32.47,0,0,1,20.37,38a7.66,7.66,0,0,1-.51-1.32c-.09-.49-.4-1.09-.43-1.51a.2.2,0,0,0,.12-.31c-.08,0-.14.06-.25.07a1.35,1.35,0,0,1-.23-.64c-.15.08-.23-.19-.27-.1s.29.59.23.79c0-.08-.09-.08-.16-.08a2.74,2.74,0,0,0,0,.28c-.43.24-1,.71-1.32.72,0,0,.06,0,.05,0a.3.3,0,0,0-.27.25,4.44,4.44,0,0,0-1.44.91c-.59.48-1.15,1-1.69,1.44a1.13,1.13,0,0,1-.14.25c-.67.47-1,1.24-1.74,1.61-.07.16-.28.35-.42.33s0,.1,0,.18c-.42.33-.73.74-1.15,1.1-.14-.12-.22-.3-.45-.25a4.54,4.54,0,0,1,.25.75c-.11,0-.18,0-.17.08s.15-.08.3-.09c1.11,1.28,2,3.08,3.16,4.5.29.54.61.77.89,1.31,1,1.32,2.28,2.87,3.43,4.18a20.58,20.58,0,0,1-2.73.06c.67-.14.95-.17,1.62-.29l-.05-.19a6.84,6.84,0,0,0-1.19.12s.05,0,.08,0a10.21,10.21,0,0,1-2,.1c-.52,0-1,.42-1.48.29-.5.18-1-.1-1.44.07-.15.06-.23.22-.35.27-.47.17-1,0-1.46.11L9,53.21c0,.07.05.07.07.12s-.05.17-.19.19a.89.89,0,0,0-.3-.19c-.2.2.14.3.18.5s-.13.09-.08.2A9.29,9.29,0,0,0,10.08,56c.75,1.18,2,1.71,2.85,2.88.07-.12.26.12.2.22.29,0,.27.34.54.43,0,0,0,.07,0,.14.21.08.21.25.37.39.1,0,.05-.24.16-.15s-.05.07-.08.2A27.75,27.75,0,0,1,17,62.91c.16,0,.2.11.25.27.27,0,.32.44.66.43,0,0-.12,0-.1.06s.2.27.34.3c0,.22.51.51.54.81.14-.06.1,0,.1.11A.3.3,0,0,1,19,65c-.05.07-.12,0-.14.11l.19-.05a47.15,47.15,0,0,1,3.37,3.37c-.07,0-.19-.12-.22,0a16.23,16.23,0,0,1,1.5,1.34A29.33,29.33,0,0,1,20,68.53c-.56-.08-1.06-.51-1.64-.39,0,.15.11.14.14.24-.15,0-.14,0-.25.1.2.39.73.58.74,1a1.76,1.76,0,0,1,.81,1s0,0-.1,0,.16.07.07.12-.15-.11-.11,0,.3.34.44.29c.19.17.15.39.43.53,0,0-.08,0-.05.07s.11,0,.07.08.05,0,.1-.06c.11.28.3.21.44.56.06,0,.11,0,.15,0,.15.46.62.73,1,1.12.09,0,.21,0,.28,0s.27.16.3.34a33.16,33.16,0,0,1,3.54,3.13c.32,0,.46.47.75.47,0,.13.17.19.26.24a.93.93,0,0,0,.74.56c-.08,0-.11,0-.11.1.25.1.53.54.84.64a.43.43,0,0,0,.34.28c.08.17.23.16.3.33a5,5,0,0,1,1.1.73c.19,0,.29.16.41.3.44.17.77.52,1.2.71l0,.13c.67.48,1.21.86,1.91,1.33a5.91,5.91,0,0,0,2,1.08c.47.19.9.69,1.46.58.09.06.28.2.32,0C37.78,84,37.47,84,37.45,83.56Zm-6.83-6.77s0,0-.07.06h0S30.6,76.79,30.62,76.79Zm-.12-.13s0,0,0,0S30.49,76.65,30.5,76.66Zm.63.73h0Zm-.29-.29h0Zm.33.45h0s0,0,0,0Zm.17,0a.13.13,0,0,0-.05-.08.15.15,0,0,1,.06.08Zm-.1-.12-.07,0h0Zm-.46-.64a.3.3,0,0,1-.1-.06.25.25,0,0,0,.1.06Zm-.44-.37a.64.64,0,0,0,.1.12.69.69,0,0,1-.1-.12Zm1.31-3.18h0Zm-.19-.51h0s.07-.05.12,0A.09.09,0,0,0,31.46,72.75Zm.12.54c.05,0,.1,0,.14,0S31.63,73.31,31.58,73.29Zm-.06,0h0ZM32,72.8h0Zm.15,0c-.1,0-.2-.09-.25,0h0c0-.13.16,0,.26,0ZM22.92,62.29a.13.13,0,0,0,0-.06h0A.15.15,0,0,1,22.92,62.29Zm.07-.16h0Zm-.86-1,.06.08Zm0,.1h0a.29.29,0,0,1-.13-.08A.27.27,0,0,0,22.09,61.19Zm.38.5s0,0-.06,0,0,0,0,0h.07Zm.35.48h0Zm.11.15a.3.3,0,0,0,0,.08l.1,0-.11,0A.42.42,0,0,1,22.93,62.32ZM21.3,60.21c0,.18.42.36.34.6a.27.27,0,0,1,.15.07.28.28,0,0,0-.15-.07c.08-.25-.38-.43-.34-.61Zm5.32-7.78h0c-.05-.08-.07-.22-.14-.28v0C26.54,52.19,26.56,52.34,26.62,52.43Zm-.12-.1h0Zm-3.89-8.81c0,.08.08.11.1.21h0a.6.6,0,0,0-.09-.2s-.06,0-.07,0S22.57,43.52,22.62,43.51Zm-.1-.12c-.1,0-.11-.19-.17-.26s.07.24.17.26,0-.08,0-.14h0C22.56,43.3,22.46,43.3,22.51,43.39Zm-.09-.19a.16.16,0,0,1,0-.13h0A.16.16,0,0,0,22.42,43.2Zm-5.05-7a1.17,1.17,0,0,1-.57.47l0,0a1.12,1.12,0,0,0,.55-.45Zm-.19.81-.05,0,.06-.06Zm-.05.1-.11.09Zm-.14,0h0a.11.11,0,0,0,.1,0A.11.11,0,0,1,17,37.08Zm0-.65.15-.1Zm-1.57,1.9c0-.1.09,0,.13,0s0,0,0,0l0-.06h0l0,.06s0,0,0,0-.13-.1-.14,0l0,0Zm0,0a.21.21,0,0,1,.09,0Zm.11,0h0Zm3.19,14.1a.31.31,0,0,1-.26-.14.33.33,0,0,0,.25.12Zm-.62-.7c.16.2.33.4.5.58A7.25,7.25,0,0,1,18.09,51.64ZM17.41,51l.1.13-.11-.14Zm.74,1.89a.69.69,0,0,0,.34,0h0a.87.87,0,0,1-.41,0Zm-2.57,0h0c-.55.1-1.12-.11-1.52,0a.62.62,0,0,0-.15.06l.15-.07C14.44,52.75,15,53,15.57,52.86Zm-1.73-.36h0Zm-.24.08a.83.83,0,0,0,.46-.07h0c-.09.1-.36.07-.49.07Zm0,.39a.49.49,0,0,0,.17-.05.54.54,0,0,1-.16.06c-.27,0-.57,0-.86,0C13.06,52.93,13.36,53,13.62,53Zm-1,0h0Zm-.31.13a2.41,2.41,0,0,0,.67,0,2.38,2.38,0,0,1-.69,0Zm-.47-.28h0l-.07,0,.06,0Zm-.82.09-.06,0h0Zm-.08,3.86a3.24,3.24,0,0,0,.25.23A3.08,3.08,0,0,1,10.94,56.74Zm.48.42A12.78,12.78,0,0,0,10,55.6v0a14.08,14.08,0,0,1,1.47,1.59Zm.24-.24c.31.34.64.66,1,1C12.31,57.59,12,57.27,11.67,56.92Zm1,1a6.78,6.78,0,0,0-1.56-1.62l0,0A6.82,6.82,0,0,1,12.71,58Zm-.33-1.05c-.09-.1-.18-.22-.27-.33.09.11.18.23.27.33l.13.11Zm.33.27.09.09Zm.14.15v0Zm.19.23a.74.74,0,0,1,.09.15A.94.94,0,0,0,13,57.55Zm.27.23a12.59,12.59,0,0,0-2-2.2l0-.05a13,13,0,0,1,2.1,2.25Zm.94,2.11h0a.34.34,0,0,0,.13.22s0,0,0,0A.39.39,0,0,1,14.24,59.89Zm.14.18s.1.08.14.08h0S14.41,60.07,14.38,60.07Zm.59.09a4.54,4.54,0,0,0,.37.35,4.57,4.57,0,0,1-.36-.34Zm.17.49s0,0,0-.05h0S15.14,60.64,15.14,60.65Zm-.19,0a.31.31,0,0,1,.18.08.29.29,0,0,0-.19-.08Zm.29.13,0,0s0,0,.06,0Zm.05-.24a6.24,6.24,0,0,0,.67.64v0A6.54,6.54,0,0,1,15.28,60.54Zm2,2a1.14,1.14,0,0,0-.57-.6h0a1.18,1.18,0,0,1,.59.62ZM24,70a1.2,1.2,0,0,1-.24,0h0A1.75,1.75,0,0,0,24,70Zm.3-.5a.23.23,0,0,0,0-.08.21.21,0,0,1,.05.08Zm-.22-.2h0l.14.07A.45.45,0,0,0,24,69.26Zm.17.18a.25.25,0,0,1-.16-.16C24.08,69.37,24.15,69.4,24.22,69.43Zm.49.85h0a.69.69,0,0,0-.37-.22A.66.66,0,0,1,24.71,70.28Zm-.51-.08-.28-.12Zm-.86-.31h0a.77.77,0,0,0-.46-.1h0A.78.78,0,0,1,23.35,69.9Zm0,0a.88.88,0,0,1-.37-.07A1,1,0,0,0,23.33,69.9Zm-1.65-.1h0Zm-.13-.05h0Zm0,.06h0Zm-.21-.19a.06.06,0,0,0-.06,0A.05.05,0,0,1,21.31,69.62Zm-.08,0h0s0,0,0,.06l0,0S21.22,69.68,21.23,69.66Zm-.89-.16h0l-.12,0Zm-.14-.14,0,0S20.2,69.37,20.21,69.36Zm0,.07v0Zm-.68-.28a5.39,5.39,0,0,1,.7.18h0a5.13,5.13,0,0,0-.69-.18,1.14,1.14,0,0,0,.19.13A1.24,1.24,0,0,1,19.52,69.15Zm.68.33a1.89,1.89,0,0,1-.41-.16A2,2,0,0,0,20.2,69.48Zm14.34,12.3s0,.07,0,.1c-.21,0-.3-.28-.53-.3l0-.13c-.53-.42-1.13-.76-1.65-1.25a.37.37,0,0,1-.23,0c-.11-.43-.53-.28-.69-.6-.9-.26-1.65-1.21-2.53-1.69,0-.06.09-.11.08-.2-.87-.71-1.85-1.24-2.73-2-.06,0-.14,0-.19-.05a6.21,6.21,0,0,0-1.52-1.17c0-.15-.14-.2-.25-.26.07-.17-.45-.51-.72-.72l-.27-.22a6.76,6.76,0,0,1-.54-.64.55.55,0,0,0-.22.06c-.27-.42-.71-.62-.9-1.1A12.46,12.46,0,0,1,20.08,70c.15,0,.24.19.43.17s.08-.09.14-.12c1,.1,1.85.35,2.89.36l0,.1a3.61,3.61,0,0,0,1.62.07c.09,0,.09.08.19,0a4.4,4.4,0,0,1-.68-.89c.1-.06.11,0,.19.05.12-.19-.19-.41-.35-.25,0-.08.11-.08,0-.22s-.05,0-.13,0a48.5,48.5,0,0,1-4.34-4c.4.14.8.8,1.17.92a11.42,11.42,0,0,0,1.22,1c.18-.21-.25-.39-.4-.45s-.21-.3-.39-.3c0-.1,0-.15.07-.23-.88-.75-1.58-1.39-2.42-2.16a.19.19,0,0,0,.17,0,.85.85,0,0,0-.62-.56s0,0,.09-.06c-.11-.14-.34.13-.34-.11.12.05,0,.1.18,0-.05-.12-.08-.17-.16-.09-.11-.26-.68-.63-1-.91,0-.05,0-.16-.13-.2a10.07,10.07,0,0,1-.93-.92c-.69-.68-1.37-1.62-2.12-2.32l0-.16c-.37-.26-.61-.77-1-1-1.08-1.69-2.58-2.55-3.88-3.95a3,3,0,0,0,1.22-.35,4,4,0,0,0,1.09-.05c1.38.14,3-.13,4.46-.14,1-.32,1.85,0,2.75-.25,0,0,0-.08,0-.15s-.25,0-.32-.08c.14-.12.45-.16.63-.27l0-.13c-.61,0-.86-.61-1.26-1,0-.1-.08-.22,0-.25a14.21,14.21,0,0,1-1-1.31c-.25-.2-.4-.57-.71-.67-.16-.45-.47-.43-.58-.9a17.55,17.55,0,0,1-2.09-2.58,4,4,0,0,1-1.08-1.36,15.38,15.38,0,0,1-1.05-1.57c-.07,0-.17,0-.24,0a2.36,2.36,0,0,0-.36-.53c.08,0,0-.08.15-.08.47-.65,1.38-1.06,1.89-1.69a1.41,1.41,0,0,0,.59-.48c.77-.6,1.54-1.21,2.34-1.79a2.88,2.88,0,0,0,.64-.59c.79-.43,1.4-1.23,2.13-1.69,0-.06-.25.14-.19-.05-.3.17-.38.47-.7.63-.09,0,0-.13-.09-.06.18-.38.67-.6,1.08-.86,0,.12-.13.14-.14.25s.17-.07.25-.07a34.45,34.45,0,0,0,1.72,4.7c.16.37.24.84.41,1.14.29.48.5,1.28.81,1.88.2.39.31.79.53,1.24.75,1.54,1.76,3.26,2.39,4.94-.17,0-.09-.18-.24-.19-.38-.92-1-1.86-1.45-2.92,0,0-.06,0-.1,0-.15.44.45.8.35,1.22.13.1.14.32.24.48s.09,0,.12.07-.05.07,0,.08a4.45,4.45,0,0,0,.42.62c.08.15.11.31.2.46s.14.13.2.22.06.5.28.49c-.1.25.16.45.24.62S25,50.89,25,51a1.83,1.83,0,0,0,.25.53,1.62,1.62,0,0,1,.29.36c.25.53.54,1.1.79,1.56,0,.07,0,.08-.08.09a.77.77,0,0,0,.25.41c-.36,0-.31-.8-.72-.84.09.44.69.85.59,1.09.11.19.37.33.21.49.54,1,.88,1.57,1.37,2.65.21,0,.12-.19.05-.29s.05-.07.15-.08c.09.32.54.69.59.93-.16,0-.25-.14-.4-.13s.06-.1,0-.21-.27,0-.4,0a6.49,6.49,0,0,1-2.72-.51,10.59,10.59,0,0,1-2.71-.76s-.05,0-.1.06c.14.3.5.18.68.39.36,0,.61.26,1,.26,0,.06.09,0,.1.11a.85.85,0,0,1,.55.19c-1.05,0-1.85-.11-2.77-.05,0-.07,0-.05-.06-.09a4.7,4.7,0,0,1-2.7-.55c-.08,0,.08.1.06.21-.14-.06-.14,0,0,.11-.15.18-.38.06-.54,0,0-.14-.12-.19-.08-.27-.2,0,0,.14-.2.2.29.23.48.72.8.68-.18-.14-.21-.27-.36-.41.07-.12.16.14.38,0a3,3,0,0,1,.19.53c-.12-.1-.13-.08-.31,0a1.75,1.75,0,0,1,.45.51c.3.27.51.58.76.85s.34.7.52.69a.16.16,0,0,1-.06.09,2.68,2.68,0,0,1,.45.68c.05,0,.1,0,.08-.07s.09.39.3.34c0,0,0,0-.09.06s.12,0,.15,0c.18.5.68.75.88,1.17l.16,0c-.18.17.15.27.23.45a1,1,0,0,0,.23-.1c-.07.23.14.08.11.26s-.08-.17-.23-.09.16.13.17.24.09-.16.15-.08-.08.07-.14.11a.33.33,0,0,0,.39.16c0,.11-.17,0-.18.09.32.17.31.5.7.52.05.12-.09,0-.11.08s.07-.05.14,0c.05.24.14.48.38.48,0,0-.05,0-.05,0a1.57,1.57,0,0,0,.66.58c0,.18.24.1.15.27.12.07.06-.09.18-.09s0,.18,0,.28c.14-.06.06.14.29.05,0,.06-.11,0-.15.08s.11,0,.21,0c-.23.15.09.06,0,.2a.65.65,0,0,0,.24,0c0,.05,0,.08-.11.1.14.13.47.49.59.5.22.25.42.55.72.65.36.41.68.92,1.06,1.31.09.08.23.07.25.27.11,0,.11.07.2.08a.9.9,0,0,0,.46.45c1.18,1.3,2.37,2.4,3.57,3.55a25.86,25.86,0,0,1-3.31-.14.4.4,0,0,0,0,.35c-.56.09-1,0-1.52,0,0,0,0,.07,0,.1-.19,0-.2-.35-.44-.32-.08.14.07.19,0,.26s-.36,0-.48-.07,0,.11-.14.11c.15.16.32.11.48.31.64.73,1.61,1.6,2.28,2.41.06.09-.09.06-.06.15a11.14,11.14,0,0,0,1.57,2s.2,0,.14-.11c.13.15.29.23.38.42-.24-.05-.19-.29-.42-.31,0,.38.56.53.67.86,0,.08.13,0,.21,0s-.05,0-.09.06c0,.17.2,0,.22,0s-.07,0-.15.08c.08,0,.12,0,.11.14l.19-.05s-.08,0-.12.07.08.1.19.05c0,.15.06.26.27.22a.09.09,0,0,1-.08.09c.73.62,1.65,1.73,2.5,2.55.18.69,1,.76,1.07,1.29A8.89,8.89,0,0,1,34.54,81.78Z"/><path class="cls-1" d="M33.79,79c-.15-.15-.28-.35-.44-.35.12,0,0,.08,0,.1A1.23,1.23,0,0,1,33.79,79Z"/><path class="cls-1" d="M19.17,56.56c-.1,0-.11-.16-.26-.06A.16.16,0,0,0,19.17,56.56Z"/><path class="cls-1" d="M36,51.53c.08.07.17.2.25.15-.07-.13.24-.27,0-.4Z"/><path class="cls-1" d="M64.12,48.17a.71.71,0,0,0-.51.3.45.45,0,0,0-.3-.2,4.53,4.53,0,0,1-2,.45c-1.14,1.43-2.76,1.55-3.87,2-.21.07-.33.25-.5.3-.59.14-1.12-.75-1.7-1.11,1.61-8.82,3.32-17.63,5.26-26.44l-.35-.36c0-.39.42-.8,0-1.2-.07.06-.14.11-.2,0-.19.12,0,.5-.36.45.32-.24,0-.68-.25-.75-.64.69,0,1.39-.5,2.11-.27.43-.9.59-1.4.9-.65.39-1.13,1-1.81,1.3,1-1.18,1.9-2.07,3-3.2A5.85,5.85,0,0,1,60.59,20c-.33-.44-.62,0-.8.1-.73.5-1.37,2-2.36,3.06a34,34,0,0,1-2.71,2.42c-1.75,1.87-4.43,4-6.43,6,.11-2.26.54-4.52.65-6.77.06-.17,0-.35.2-.51,0-.11-.13-.23-.15-.35.45-1.56.26-3.11.65-4.66-.24-.81.27-1.61,0-2.42a10.75,10.75,0,0,0,.25-4.56c-.48,1.08-.12,2.17-.85,3.26a12.19,12.19,0,0,1,.7-3.91c.13.21-.07.43.14.65a5.43,5.43,0,0,0,.15-3c.38-.29.38-.71,0-.86-.9,1-1.32,2.28-2.06,3.17-2.71,5.35-6.07,10.89-9,16.16A17.54,17.54,0,0,0,37,31.21a19.24,19.24,0,0,1,.26,2.67.35.35,0,0,0-.45,0,18.47,18.47,0,0,0,.09,4.71,28.31,28.31,0,0,0,0,3.62,26.49,26.49,0,0,0,.25,7.57c-.29.39-.09.77-.15,1.15-.13,0-.26.18-.39.31.07.3.25.12.45.25,0,.39-.1.9.35,1.15.26,0,.24-.3.45-.36,1.88-.3,3.63-2.37,5.43-3.91A31.87,31.87,0,0,1,43,53.64a16.73,16.73,0,0,1-.39,2.42,13.72,13.72,0,0,1-.36,3.66c0,.1.19.19.11.3-.42,3-.55,5.95-1,8.92.19.19.2.1.3.31a28.76,28.76,0,0,1-.39,3.31c.3.54-.31,1.29.35,1.65.32-.24.11-.46.31-.7.14.23.3,0,.45,0a29.32,29.32,0,0,1,5.71-5.22,32.31,32.31,0,0,1-.59,3.82c-.12.89-.18,2.14-.4,3.31-.08.07-.17-.08-.25,0,.24.58-.1,1.18-.15,1.76.19.29.37,0,.55.25-.26,1.15-.2,2.31-.44,3.46l.25.25c-.15,3.26-.51,6.52-.86,9.78-.35,0-.25.55,0,.61.49-.52.26-1,.65-1.56.08.42-.29.84.14,1.26.74-.81.54-2.31,1.51-3.12a.17.17,0,0,1,0-.3c.23-.19.13-.26.34-.36-.13-.46.37-1.2.51-1.5.19.26-.38.54-.2.8a8.15,8.15,0,0,0,1.2-2.9c.77-1.89,1.57-3.62,2.56-5.57l.35-.36c1.32-3.33,3.47-6.74,4.77-10.19.36-.46.74-1.09.3-1.4-1,.82-1.06,2.21-1.9,3.12.24-1.21,1-2.67,1.11-3.71,1.58-3.78,2.63-8,4.82-11.95,0-.4.3-.81.2-1.2.37-1,.79-2.15,1.25-3.17C63.94,49,64.39,48.63,64.12,48.17Zm-2.37,3.76c-2,6-4.25,11.61-6.87,17.41-.21,1.37-1.12,2.75-1.31,4.12a55.94,55.94,0,0,0-2.15,5.16,10.39,10.39,0,0,0-1.21,2.81c-.62.73-.44,1.42-1,2-.08.23.15.13,0,.36a26.37,26.37,0,0,0-1.45,3.06c.17.39.33-.12.5.1a4.54,4.54,0,0,1-.84,1.65,10.41,10.41,0,0,1,.14-3.15,8.86,8.86,0,0,1,.2-3,41.07,41.07,0,0,1,.86-7.08c-.18-1.65.55-3.31.14-5a7.39,7.39,0,0,0,.31-2.31c.17-.15.12-.31.35-.45-.46-1.06,0-2.11,0-3.17l-.25-.25c-2,2.24-4.39,5.39-6.77,7.88-.46-2,.1-4.41,0-6.57a2,2,0,0,0,.25-.65,28.4,28.4,0,0,1,.65-4.07c0-.13-.2-.26-.2-.39.08-1,.31-1.92.4-2.92.18-2,.71-4.3.84-6.38,0-.58.15-1.26.2-2a4.44,4.44,0,0,0,0-2.37c.18-.19.06,0,.2.11A8.26,8.26,0,0,0,44.9,44c-.56-.07-1.31.83-1.76,1.25-.63.57-1,1.31-1.65,1.45a27.3,27.3,0,0,1-3.87,3.37c-.07-1.19.13-2.38,0-3.56.39-.44,0-1.08.45-1.36-.13-.2-.25.11-.25-.15a23.57,23.57,0,0,0,0-3.67,70.8,70.8,0,0,0,.61-9.63c-.08-.18-.25-.44-.45-.26,0-.07.06-.38-.09-.3,0-.43.36-.65.7-1.11.73-1,1.29-2.25,1.9-3.21.12-.26.24,0,.35-.14s-.13-.4,0-.61c2.8-4.33,4.46-9,8-13.49a1.91,1.91,0,0,1-.25,1.25c.1.26-.17.5,0,.76a51.61,51.61,0,0,0-1.25,7.88c0,.19-.33.33-.06.55-.73,2.31-.67,4.62-1.3,6.93a14,14,0,0,1-.51,3c-.08.1.14.2.11.3a11.34,11.34,0,0,0-.75,3.17c.3.33.59,0,.9.1.26-.31.06-.63.45-1,.11.15,0,.31.25.45.42-.3.23-.59.3-.9,3.71-3.3,7.82-7.06,11.7-10.19C57.48,31.29,56,37.65,55.13,44c0,.25.12.55.1.8a28.28,28.28,0,0,0-.45,4c-.62,1.52-.29,3-1,4.57a1.65,1.65,0,0,1,0,.8c-.27.23-.54.64-.81.71,0,.13.17.26.3.39a1.36,1.36,0,0,1,.71-.2C56,53.3,58.42,52,60.4,50.28c.79.07,1.57-.82,2.36-1.06A7.89,7.89,0,0,1,61.75,51.93Z"/><text x="0" y="115" fill="#000000" font-size="5px" font-weight="bold" font-family="'Helvetica Neue', Helvetica, Arial-Unicode, Arial, Sans-serif">Created by Nikita Kravchuk</text><text x="0" y="120" fill="#000000" font-size="5px" font-weight="bold" font-family="'Helvetica Neue', Helvetica, Arial-Unicode, Arial, Sans-serif">from the Noun Project</text></svg>